<?xml version="1.0" standalone="no"?>
<!DOCTYPE svg PUBLIC "-//W3C//DTD SVG 20010904//EN"
 "http://www.w3.org/TR/2001/REC-SVG-20010904/DTD/svg10.dtd">
<svg version="1.0" xmlns="http://www.w3.org/2000/svg"
 width="646.000000pt" height="202.000000pt" viewBox="0 0 646.000000 202.000000"
 preserveAspectRatio="xMidYMid meet">

<g transform="translate(0.000000,202.000000) scale(0.100000,-0.100000)"
fill="#000000" stroke="none">
<path d="M4180 1785 c-364 -59 -576 -327 -563 -710 9 -294 157 -502 418 -591
140 -47 385 -49 583 -4 l92 21 1 117 c0 64 1 158 2 207 l2 90 68 3 68 3 -3 75
-3 76 -235 -1 -235 -1 -3 -75 -3 -75 76 0 75 0 0 -140 0 -140 -27 -12 c-17 -7
-87 -12 -173 -12 -143 -1 -146 -1 -213 31 -197 94 -298 328 -253 590 27 160
83 256 188 323 115 75 301 95 467 50 l38 -10 -1 -105 -1 -105 92 0 93 0 0 170
0 169 -52 16 c-150 45 -365 62 -498 40z"/>
<path d="M2550 1698 l0 -78 65 0 66 0 -3 -497 -3 -498 -62 -3 -63 -3 0 -74 0
-75 245 0 245 0 0 75 0 75 -75 0 c-51 0 -77 4 -80 13 -3 6 -2 98 3 202 l7 190
79 -2 c71 -1 81 -4 108 -30 16 -15 57 -75 91 -132 159 -272 336 -450 567 -569
190 -99 336 -134 548 -131 225 3 387 50 627 181 72 39 147 81 167 94 l37 24
-20 47 c-11 26 -22 49 -23 51 -2 1 -48 -20 -102 -47 -207 -104 -399 -164 -585
-181 -313 -30 -623 91 -816 319 -61 71 -161 218 -198 291 -27 53 -88 114 -130
131 -30 13 -30 13 -5 16 109 17 203 81 246 169 33 67 44 193 25 271 -18 74
-72 148 -133 183 -101 58 -125 61 -493 63 l-335 2 0 -77z m635 -97 c132 -61
162 -242 57 -344 -54 -53 -104 -67 -238 -67 l-114 0 0 215 0 215 128 0 c102 0
135 -4 167 -19z"/>
<path d="M4820 1698 l0 -78 59 0 c47 0 60 -4 66 -17 3 -10 88 -225 187 -478
100 -253 198 -503 218 -555 l37 -95 119 -3 119 -2 222 572 222 573 60 3 61 3
0 77 0 77 -240 0 -240 0 0 -77 0 -78 75 0 c41 0 75 -2 75 -4 0 -2 -59 -169
-131 -372 -72 -203 -148 -421 -169 -484 l-38 -115 -12 45 c-9 35 -294 833
-325 913 -6 15 0 17 59 17 l66 0 0 78 0 77 -245 0 -245 0 0 -77z"/>
<path d="M160 1695 l0 -75 70 0 70 0 0 -412 c0 -509 6 -546 103 -639 89 -87
195 -119 398 -119 271 0 412 67 490 234 42 90 49 164 49 569 l0 367 237 0 236
0 -6 -157 c-4 -87 -7 -312 -7 -500 l0 -343 -70 0 -70 0 0 -75 0 -75 250 0 250
0 0 75 0 75 -82 0 -81 0 6 122 c4 66 7 291 7 500 l0 378 155 0 155 0 0 -95 0
-95 96 0 c95 0 96 0 90 23 -3 12 -6 88 -6 170 l0 147 -755 0 -755 0 0 -75 0
-75 78 0 77 0 -3 -372 c-2 -205 -8 -397 -13 -425 -15 -74 -63 -141 -124 -173
-46 -23 -60 -25 -185 -25 -122 0 -140 2 -183 24 -53 26 -99 81 -119 140 -8 24
-13 165 -15 434 l-4 397 70 0 71 0 0 75 0 75 -240 0 -240 0 0 -75z"/>
</g>
</svg>
